<svg width="35" height="36" viewBox="0 0 35 36" fill="none" xmlns="http://www.w3.org/2000/svg">
<path d="M31.3985 33.2334C31.3965 33.2426 31.3115 33.3034 31.2853 33.3813C30.9661 34.3198 30.2473 34.8777 29.2761 35.1001L2.12829 35.0988C1.13282 34.8849 0.226302 34.1674 0 33.1065L0.00588648 5.31844C0.189021 5.19744 0.249848 4.788 0.368886 4.62318C0.747583 4.09929 1.65933 3.65976 2.26302 3.57539C2.47821 3.5453 2.72021 3.57735 2.93735 3.58128C3.02957 3.63883 3.04789 5.3361 3.01584 5.57091C2.98706 5.78609 2.84644 5.80833 2.81701 5.96072C2.72413 6.43687 3.01519 7.24397 3.42266 7.51868C4.09764 7.97324 5.08919 7.88625 5.58038 7.22108C5.85247 6.85285 5.9787 6.42314 5.88909 5.96007C5.85966 5.80833 5.71904 5.78544 5.69026 5.57025C5.61308 5.00253 5.70596 4.14703 5.75959 3.57147H8.53932C8.60407 3.61267 8.62369 3.66172 8.63743 3.73498C8.69629 4.05743 8.65836 4.93778 8.6407 5.30732C8.62173 5.6991 8.47915 5.998 8.51512 6.40809C8.6577 8.0223 10.8985 8.29177 11.4348 6.92414C11.4616 6.85547 11.578 6.37343 11.5859 6.2884C11.6212 5.88812 11.4505 6.01108 11.4505 5.99146V3.57147H14.1648L14.2629 3.66957V5.95876C14.2629 5.98034 14.1269 6.12358 14.1275 6.28579C14.1275 6.31849 14.2603 6.87182 14.278 6.92414C14.314 7.0301 14.5906 7.34666 14.6887 7.43169C14.847 7.56838 15.3153 7.79534 15.5338 7.82543C16.0825 7.90064 16.6692 7.53895 16.9661 7.0955C17.1846 6.76979 17.1833 6.21515 17.1421 5.82533C17.1231 5.64416 17.0276 5.52185 17.006 5.30732C16.9517 4.77885 17.0119 4.09798 17.0747 3.57081H19.9525C19.8852 4.20851 20.0421 5.02019 19.9558 5.63435C19.9355 5.7802 19.84 5.85934 19.825 5.96138C19.7465 6.49443 19.9277 7.10662 20.3502 7.4572C21.2613 8.21197 22.6041 7.70116 22.8677 6.58469C22.9874 6.07845 22.7369 5.90578 22.695 5.50485C22.6531 5.10391 22.6518 4.17254 22.6963 3.79646C22.7074 3.70097 22.7041 3.62837 22.7977 3.57081H25.6101C25.6749 3.61202 25.6945 3.66107 25.7082 3.73432C25.754 3.98548 25.7488 5.16866 25.7121 5.43879C25.6834 5.65397 25.5427 5.67621 25.5133 5.8286C25.4374 6.21711 25.5153 6.81165 25.7331 7.14456C25.754 7.17726 26.2439 7.68023 26.2812 7.69069C26.3924 7.72143 26.7442 7.81038 26.8495 7.82543C27.1962 7.87514 27.8077 7.63248 28.068 7.4016C28.2145 7.27144 28.5952 6.4735 28.5946 6.28513C28.5946 6.05687 28.4212 5.89401 28.3905 5.63108C28.3617 5.38581 28.3709 3.65649 28.4631 3.57801C28.656 3.58324 28.8961 3.54072 29.0812 3.56754C29.4396 3.61921 30.1702 3.85925 30.4802 4.06855C30.7712 4.26542 31.3128 5.11111 31.3815 5.45383L31.3985 13.2828C30.989 13.9794 30.3847 14.4928 29.9615 15.1822C29.9255 15.2463 29.8301 15.1234 29.8301 15.1155V10.9296L29.7319 10.8315H1.63906C1.64494 11.1003 1.5972 11.3848 1.58673 11.649C1.47816 14.4857 1.63382 17.423 1.63317 20.2753C1.63186 24.0675 1.57431 27.8591 1.56842 31.6617C1.56842 31.9149 1.85816 32.5794 2.03083 32.7756C2.2761 33.0542 2.65742 33.0876 2.9282 33.3172L28.5403 33.3322C28.6312 33.1052 28.8202 33.168 28.949 33.0719C29.4206 32.7193 29.6678 32.2805 29.8255 31.7245L29.8307 26.3136L31.2683 24.664L31.3991 24.7301V33.2328L31.3985 33.2334Z" fill="#282828"/>
<path d="M32.9912 15.9763C33.5616 16.4341 34.2163 16.8867 34.7441 17.3988C34.8481 17.4996 35.0122 17.423 34.9992 17.8011C34.992 18.0091 34.0868 19.1164 33.884 19.3669C30.8747 23.0819 27.8438 26.8126 24.7678 30.4936C24.4166 30.9135 24.2596 31.2563 23.6311 31.0914L22.8743 30.2798C21.1653 28.7375 19.3902 27.209 17.6968 25.6137C17.1788 25.1258 16.6889 24.6032 16.1631 24.1277L16.1788 23.6679L17.0801 22.6417C17.3437 22.3494 17.6399 22.0799 17.9303 21.7901C18.2005 21.5207 18.5864 20.9294 18.9997 20.9706C19.1305 20.9837 19.8585 21.5822 20.0207 21.7221C20.6944 22.3049 21.3079 22.9988 21.9495 23.5868C22.3772 23.9793 22.8658 24.3253 23.2537 24.7674C23.3858 24.8753 23.703 24.8367 23.8358 24.7537C23.9542 24.6804 23.9339 24.5601 24.013 24.4731C24.2648 24.1971 24.654 23.8027 24.8862 23.5149C26.9334 20.9752 28.925 18.2426 31.1376 15.835C31.3829 15.5681 31.5314 15.1417 32.0075 15.1587C32.2554 15.4099 32.568 15.5551 32.8434 15.7689C32.9134 15.8232 32.9389 15.9331 32.9932 15.9769L32.9912 15.9763Z" fill="#009C5C"/>
<path d="M13.8697 18.4827H10.3051L10.207 18.3846V14.82L13.8436 14.8135C13.9443 14.8933 13.9286 14.9999 13.9391 15.1104C14.011 15.8815 13.9999 17.346 13.9391 18.1263C13.9292 18.2525 13.9005 18.363 13.8704 18.4827H13.8697Z" fill="#282828"/>
<path d="M22.2749 14.7559H25.7413L25.8395 14.854V18.3859L25.7413 18.484H22.2749L22.1768 18.3859V14.854L22.2749 14.7559Z" fill="#282828"/>
<path d="M4.22213 20.5107H7.75402L7.85213 20.6089V24.0753L7.75402 24.1734H4.22213L4.12402 24.0753V20.6089L4.22213 20.5107Z" fill="#282828"/>
<path d="M10.3051 20.5107H13.837L13.9351 20.6089V24.0753L13.837 24.1734H10.3051L10.207 24.0753V20.6089L10.3051 20.5107Z" fill="#282828"/>
<path d="M19.9527 14.8213V18.4186C19.8886 18.3976 19.8108 18.484 19.7892 18.484H16.3881L16.29 18.3859V14.854L16.3881 14.7559H19.7238C19.7591 14.7559 19.869 14.8572 19.9527 14.8213Z" fill="#282828"/>
<path d="M27.2998 6.73449C27.2468 6.75673 27.29 6.88623 26.9819 6.84372C26.4907 6.7757 26.1068 6.35383 25.9648 5.896L25.9694 0.921921C26.1388 0.598819 26.3762 0.0906193 26.7824 0.0343708C27.2442 -0.0290724 27.6628 0.0788464 27.8917 0.502673C27.9322 0.577235 28.1213 1.04357 28.1304 1.11421C28.3129 2.54005 27.9885 4.35701 28.1265 5.82536C27.8629 6.34533 27.8381 6.50623 27.2998 6.73449Z" fill="#282828"/>
<path d="M5.01811 0.257589C5.16266 0.396248 5.40923 0.976394 5.43474 1.18111C5.53023 1.94701 5.54659 4.96154 5.42951 5.69146C5.42166 5.73921 5.23722 6.25853 5.21629 6.29712C5.12014 6.47371 4.5073 6.85829 4.2895 6.84718C3.83885 6.82298 3.451 6.33244 3.27637 5.9557L3.27833 0.924069C3.28879 0.745513 3.77606 0.0914597 3.90622 0.0496002C4.2012 -0.0452375 4.782 0.0312868 5.01811 0.257589Z" fill="#282828"/>
<path d="M4.28884 26.4629H7.75532L7.85343 26.561V29.9621C7.7769 30.0517 7.67422 30.0863 7.56106 30.0922C6.71864 30.1367 5.6787 30.0641 4.80946 30.0569C4.56419 30.055 4.332 30.191 4.12598 29.9621V26.6918C4.12598 26.6532 4.2509 26.5106 4.28949 26.4629H4.28884Z" fill="#282828"/>
<path d="M10.207 26.6266C10.2129 26.605 10.3084 26.5108 10.3391 26.4971L13.8056 26.4951C13.9031 26.5828 13.9227 26.6992 13.9371 26.8215C14.0189 27.5429 13.9796 28.885 13.9391 29.6378C13.9345 29.7268 13.9319 30.0394 13.8272 30.063C13.5891 30.008 13.3282 30.1107 13.1182 30.1127C12.3719 30.1179 11.2084 30.1559 10.5 30.0931C10.3869 30.0833 10.2842 30.0545 10.2077 29.9623V26.6266H10.207Z" fill="#282828"/>
<path d="M22.0211 0.259089C22.1473 0.385975 22.3514 0.740472 22.3749 0.919028C22.5763 2.45605 22.2212 4.43587 22.369 6.02064C22.2336 6.47783 21.7058 6.90558 21.2238 6.84671C21.1139 6.83363 21.1427 6.74861 21.0759 6.71721C21.0092 6.68582 20.9157 6.70936 20.8313 6.64853C20.6096 6.48895 20.3271 6.09128 20.2826 5.82312C20.0556 4.45484 20.4409 2.48876 20.2826 1.05638C20.4226 0.683569 20.5507 0.19957 20.9955 0.0687592C21.3395 -0.032619 21.764 0.000737713 22.0211 0.259089Z" fill="#282828"/>
<path d="M10.2956 6.73565C10.274 6.74481 10.2714 6.82787 10.2269 6.83899C9.75073 6.95672 9.09013 6.52962 9.02734 6.02666L9.03192 0.727519C9.46098 -0.153491 10.4682 -0.255523 10.9418 0.646416L10.9915 6.15354C10.8384 6.49234 10.599 6.60811 10.2962 6.73565H10.2956Z" fill="#282828"/>
<path d="M15.9853 6.73511C15.9637 6.74427 15.9605 6.82799 15.9166 6.83845C15.827 6.86004 15.5752 6.85938 15.4856 6.83845C15.4418 6.82799 15.4379 6.74361 15.4169 6.73511C15.0899 6.60626 14.8643 6.51927 14.7217 6.15235V0.726325C14.8832 0.203736 15.5765 -0.16188 16.0926 0.0722714C16.1822 0.112823 16.6616 0.626908 16.6812 0.726325L16.6799 6.01958C16.4961 6.45714 16.4 6.56244 15.986 6.73446L15.9853 6.73511Z" fill="#282828"/>
</svg>
