<svg width="47" height="48" viewBox="0 0 47 48" fill="none" xmlns="http://www.w3.org/2000/svg">
<path d="M42.1637 44.6274C42.161 44.6397 42.0469 44.7214 42.0117 44.8259C41.5831 46.0862 40.6179 46.8354 39.3136 47.1341L2.85799 47.1323C1.52122 46.8451 0.303892 45.8816 0 44.457L0.0079047 7.14154C0.253829 6.97906 0.335511 6.42924 0.495361 6.20791C1.0039 5.50439 2.22825 4.91418 3.03892 4.80087C3.32788 4.76047 3.65285 4.80351 3.94445 4.80878C4.06829 4.88607 4.09288 7.16526 4.04984 7.48057C4.0112 7.76953 3.82236 7.79939 3.78284 8.00404C3.65812 8.64344 4.04896 9.72726 4.59614 10.0961C5.50255 10.7066 6.83405 10.5898 7.49366 9.69652C7.85903 9.20204 8.02854 8.62499 7.90821 8.00316C7.86869 7.79939 7.67985 7.76865 7.64121 7.47969C7.53757 6.71733 7.66229 5.56851 7.73431 4.79561H11.4671C11.554 4.85094 11.5804 4.91681 11.5988 5.01518C11.6779 5.44818 11.6269 6.63037 11.6032 7.12661C11.5777 7.65272 11.3863 8.0541 11.4346 8.60479C11.6261 10.7724 14.6351 11.1343 15.3553 9.29777C15.3913 9.20555 15.5477 8.55824 15.5582 8.44406C15.6056 7.90654 15.3764 8.07166 15.3764 8.04532V4.79561H19.0213L19.1531 4.92735V8.0014C19.1531 8.03038 18.9704 8.22273 18.9713 8.44055C18.9713 8.48447 19.1496 9.22751 19.1733 9.29777C19.2216 9.44006 19.5931 9.86515 19.7249 9.97933C19.9374 10.1629 20.5663 10.4677 20.8596 10.5081C21.5965 10.6091 22.3844 10.1234 22.7831 9.52789C23.0765 9.09049 23.0747 8.34569 23.0194 7.82223C22.9939 7.57894 22.8657 7.4147 22.8367 7.12661C22.7638 6.41695 22.8446 5.50264 22.9289 4.79473H26.7934C26.703 5.65107 26.9137 6.74104 26.7978 7.56576C26.7706 7.76162 26.6424 7.8679 26.6221 8.00491C26.5168 8.72073 26.76 9.54282 27.3274 10.0136C28.5509 11.0271 30.354 10.3412 30.708 8.84193C30.8687 8.16213 30.5323 7.93026 30.4761 7.39186C30.4199 6.85346 30.4182 5.60276 30.4779 5.09774C30.4928 4.96951 30.4884 4.87202 30.614 4.79473H34.3907C34.4777 4.85006 34.504 4.91593 34.5225 5.0143C34.5839 5.35157 34.5769 6.94041 34.5277 7.30315C34.4891 7.59211 34.3002 7.62197 34.2607 7.82662C34.1588 8.34833 34.2634 9.1467 34.5558 9.59376C34.5839 9.63767 35.2418 10.3131 35.2918 10.3271C35.4412 10.3684 35.9137 10.4879 36.0551 10.5081C36.5206 10.5748 37.3418 10.249 37.6914 9.93893C37.8881 9.76415 38.3993 8.69262 38.3984 8.43967C38.3984 8.13315 38.1656 7.91445 38.1244 7.56137C38.0857 7.23201 38.098 4.90978 38.2219 4.80439C38.481 4.81141 38.8033 4.75433 39.0519 4.79034C39.5332 4.85972 40.5142 5.18206 40.9305 5.46311C41.3214 5.72748 42.0486 6.86312 42.1408 7.32335L42.1637 17.8366C41.6138 18.772 40.8023 19.4615 40.234 20.3872C40.1857 20.4733 40.0575 20.3081 40.0575 20.2976V14.6765L39.9258 14.5447H2.20102C2.20892 14.9057 2.14481 15.2878 2.13076 15.6426C1.98496 19.4518 2.19399 23.3962 2.19311 27.2265C2.19136 32.3189 2.11407 37.4104 2.10616 42.5168C2.10616 42.8567 2.49525 43.7491 2.72712 44.0126C3.05648 44.3867 3.56853 44.4315 3.93215 44.7398L38.3255 44.76C38.4476 44.4552 38.7014 44.5396 38.8744 44.4105C39.5077 43.9371 39.8397 43.3477 40.0514 42.6012L40.0584 35.335L41.9889 33.1199L42.1645 33.2086V44.6265L42.1637 44.6274Z" fill="#282828"/>
<path d="M44.3029 21.454C45.0687 22.0688 45.9479 22.6766 46.6567 23.3643C46.7964 23.4996 47.0168 23.3968 46.9992 23.9045C46.9896 24.1838 45.774 25.6707 45.5017 26.0071C41.4607 30.9959 37.3906 36.0057 33.26 40.9488C32.7883 41.5126 32.5776 41.9728 31.7335 41.7515L30.7173 40.6615C28.4223 38.5905 26.0386 36.5379 23.7647 34.3958C23.0691 33.7405 22.4112 33.0388 21.7051 32.4003L21.7262 31.7828L22.9365 30.4048C23.2904 30.0122 23.6883 29.6503 24.0782 29.2612C24.441 28.8994 24.9592 28.1054 25.5143 28.1607C25.6899 28.1783 26.6675 28.9819 26.8853 29.1699C27.7899 29.9524 28.6138 30.8843 29.4754 31.6739C30.0498 32.2009 30.7059 32.6655 31.2267 33.2592C31.4041 33.4042 31.8301 33.3523 32.0084 33.2408C32.1674 33.1424 32.1402 32.9808 32.2464 32.864C32.5846 32.4934 33.1072 31.9637 33.419 31.5773C36.168 28.1669 38.8425 24.4973 41.8138 21.2643C42.1431 20.9059 42.3425 20.3333 42.9819 20.3561C43.3148 20.6934 43.7346 20.8884 44.1044 21.1756C44.1983 21.2485 44.2326 21.396 44.3055 21.4549L44.3029 21.454Z" fill="#009C5C"/>
<path d="M18.6275 24.8198H13.8407L13.709 24.6881V19.9014L18.5923 19.8926C18.7276 19.9997 18.7065 20.1429 18.7206 20.2913C18.8172 21.3268 18.8022 23.2934 18.7206 24.3412C18.7074 24.5107 18.6687 24.6591 18.6283 24.8198H18.6275Z" fill="#282828"/>
<path d="M29.911 19.8145H34.566L34.6978 19.9462V24.689L34.566 24.8208H29.911L29.7793 24.689V19.9462L29.911 19.8145Z" fill="#282828"/>
<path d="M5.67081 27.542H10.4136L10.5454 27.6737V32.3287L10.4136 32.4605H5.67081L5.53906 32.3287V27.6737L5.67081 27.542Z" fill="#282828"/>
<path d="M13.8407 27.542H18.5835L18.7153 27.6737V32.3287L18.5835 32.4605H13.8407L13.709 32.3287V27.6737L13.8407 27.542Z" fill="#282828"/>
<path d="M26.7935 19.9023V24.7329C26.7074 24.7048 26.6029 24.8208 26.5739 24.8208H22.0067L21.875 24.689V19.9462L22.0067 19.8145H26.4861C26.5335 19.8145 26.6811 19.9506 26.7935 19.9023Z" fill="#282828"/>
<path d="M36.6618 9.04329C36.5906 9.07316 36.6486 9.24706 36.2349 9.18997C35.5753 9.09863 35.0597 8.53212 34.8691 7.91731L34.8753 1.23784C35.1028 0.803961 35.4216 0.121521 35.967 0.0459876C36.5871 -0.0392075 37.1492 0.105712 37.4566 0.67485C37.5111 0.774977 37.7649 1.4012 37.7772 1.49606C38.0222 3.41076 37.5866 5.85067 37.7719 7.82246C37.418 8.5207 37.3846 8.73677 36.6618 9.04329Z" fill="#282828"/>
<path d="M6.7393 0.346464C6.93341 0.532663 7.26453 1.31172 7.29878 1.58662C7.42701 2.61511 7.44897 6.6632 7.29175 7.64338C7.28122 7.7075 7.03353 8.40487 7.00543 8.45669C6.87632 8.69383 6.05335 9.21027 5.76088 9.19534C5.15573 9.16284 4.6349 8.50411 4.40039 7.99821L4.40303 1.24145C4.41708 1.00168 5.07141 0.123375 5.24619 0.0671641C5.64231 -0.0601894 6.42224 0.0425717 6.7393 0.346464Z" fill="#282828"/>
<path d="M5.75971 35.5352H10.4147L10.5464 35.6669V40.2341C10.4437 40.3544 10.3058 40.4009 10.1538 40.4088C9.0226 40.4686 7.6261 40.3711 6.45884 40.3614C6.12948 40.3588 5.81768 40.5415 5.54102 40.2341V35.8426C5.54102 35.7907 5.70877 35.5993 5.76059 35.5352H5.75971Z" fill="#282828"/>
<path d="M13.709 35.7566C13.7169 35.7276 13.8451 35.6012 13.8864 35.5827L18.5414 35.5801C18.6723 35.6978 18.6986 35.8541 18.7179 36.0184C18.8277 36.9871 18.775 38.7894 18.7206 39.8003C18.7144 39.9198 18.7109 40.3396 18.5704 40.3712C18.2507 40.2974 17.9002 40.4353 17.6183 40.438C16.6162 40.445 15.0537 40.4959 14.1025 40.4116C13.9505 40.3984 13.8126 40.3598 13.7099 40.2359V35.7566H13.709Z" fill="#282828"/>
<path d="M29.572 0.347445C29.7415 0.517835 30.0156 0.993874 30.0472 1.23365C30.3177 3.29765 29.8408 5.95627 30.0393 8.08439C29.8575 8.69832 29.1487 9.27273 28.5014 9.19368C28.3538 9.17612 28.3925 9.06194 28.3029 9.01978C28.2133 8.97762 28.0877 9.00924 27.9744 8.92756C27.6767 8.71325 27.2972 8.17925 27.2375 7.81914C26.9327 5.98174 27.4501 3.34157 27.2375 1.41809C27.4255 0.917462 27.5976 0.26752 28.1949 0.0918595C28.6568 -0.044277 29.2269 0.000516312 29.572 0.347445Z" fill="#282828"/>
<path d="M13.8261 9.04518C13.7971 9.05748 13.7936 9.16903 13.7338 9.18396C13.0944 9.34205 12.2074 8.76852 12.123 8.09311L12.1292 0.977121C12.7054 -0.205949 14.0579 -0.342964 14.6938 0.868212L14.7606 8.2635C14.5551 8.71846 14.2336 8.87392 13.8269 9.04518H13.8261Z" fill="#282828"/>
<path d="M21.4645 9.04429C21.4355 9.05659 21.4311 9.16901 21.3722 9.18306C21.2519 9.21205 20.9138 9.21117 20.7934 9.18306C20.7346 9.16901 20.7293 9.05571 20.7012 9.04429C20.2621 8.87127 19.959 8.75445 19.7676 8.26173V0.97535C19.9845 0.273588 20.9155 -0.217381 21.6085 0.0970501C21.7288 0.151505 22.3726 0.841849 22.399 0.97535L22.3972 8.08343C22.1504 8.67101 22.0213 8.81242 21.4653 9.04341L21.4645 9.04429Z" fill="#282828"/>
</svg>
