<svg width="17" height="20" viewBox="0 0 17 20" fill="none" xmlns="http://www.w3.org/2000/svg">
<path fill-rule="evenodd" clip-rule="evenodd" d="M0.407227 5.09047C0.407227 4.67861 0.741107 4.34473 1.15297 4.34473H16.2543C16.6661 4.34473 17 4.67861 17 5.09047C17 5.50233 16.6661 5.83621 16.2543 5.83621H1.15297C0.741107 5.83621 0.407227 5.50233 0.407227 5.09047Z" fill="#00A160"/>
<path fill-rule="evenodd" clip-rule="evenodd" d="M7.02648 2.48074C6.77925 2.48074 6.54215 2.57895 6.36733 2.75377C6.19252 2.92859 6.0943 3.16569 6.0943 3.41292V5.09084C6.0943 5.5027 5.76042 5.83658 5.34856 5.83658C4.9367 5.83658 4.60282 5.5027 4.60282 5.09084V3.41292C4.60282 2.77013 4.85817 2.15366 5.31269 1.69913C5.76722 1.24461 6.38369 0.989258 7.02648 0.989258H10.3823C11.0251 0.989258 11.6416 1.24461 12.0961 1.69913C12.5506 2.15366 12.806 2.77013 12.806 3.41292V5.09084C12.806 5.5027 12.4721 5.83658 12.0602 5.83658C11.6484 5.83658 11.3145 5.5027 11.3145 5.09084V3.41292C11.3145 3.16569 11.2163 2.92859 11.0415 2.75377C10.8667 2.57895 10.6296 2.48074 10.3823 2.48074H7.02648ZM2.83168 4.3451C3.24354 4.3451 3.57742 4.67898 3.57742 5.09084V16.8363C3.57742 17.0835 3.67563 17.3206 3.85045 17.4954C4.02527 17.6703 4.26237 17.7685 4.5096 17.7685H12.8992C13.1464 17.7685 13.3835 17.6703 13.5584 17.4954C13.7332 17.3206 13.8314 17.0835 13.8314 16.8363V5.09084C13.8314 4.67898 14.1653 4.3451 14.5771 4.3451C14.989 4.3451 15.3229 4.67898 15.3229 5.09084V16.8363C15.3229 17.4791 15.0675 18.0956 14.613 18.5501C14.1585 19.0046 13.542 19.2599 12.8992 19.2599H4.5096C3.86681 19.2599 3.25034 19.0046 2.79581 18.5501C2.34129 18.0956 2.08594 17.4791 2.08594 16.8363V5.09084C2.08594 4.67898 2.41982 4.3451 2.83168 4.3451Z" fill="#00A160"/>
<path fill-rule="evenodd" clip-rule="evenodd" d="M10.3825 8.54004C10.7943 8.54004 11.1282 8.87392 11.1282 9.28578V14.3195C11.1282 14.7314 10.7943 15.0653 10.3825 15.0653C9.9706 15.0653 9.63672 14.7314 9.63672 14.3195V9.28578C9.63672 8.87392 9.9706 8.54004 10.3825 8.54004Z" fill="#00A160"/>
<path fill-rule="evenodd" clip-rule="evenodd" d="M7.02504 8.54004C7.4369 8.54004 7.77078 8.87392 7.77078 9.28578V14.3195C7.77078 14.7314 7.4369 15.0653 7.02504 15.0653C6.61318 15.0653 6.2793 14.7314 6.2793 14.3195V9.28578C6.2793 8.87392 6.61318 8.54004 7.02504 8.54004Z" fill="#00A160"/>
</svg>
