<svg width="15" height="16" viewBox="0 0 15 16" fill="none" xmlns="http://www.w3.org/2000/svg">
<path fill-rule="evenodd" clip-rule="evenodd" d="M12.3334 2.19727C12.1842 2.19727 12.0365 2.22664 11.8988 2.28371C11.761 2.34078 11.6358 2.42443 11.5303 2.52988L2.67118 11.389L2.06893 13.5973L4.27719 12.995L13.1364 4.13589C13.2418 4.03043 13.3255 3.90524 13.3825 3.76747C13.4396 3.62969 13.469 3.48202 13.469 3.33288C13.469 3.18375 13.4396 3.03608 13.3825 2.8983C13.3255 2.76052 13.2418 2.63533 13.1364 2.52988C13.0309 2.42443 12.9057 2.34078 12.7679 2.28371C12.6302 2.22664 12.4825 2.19727 12.3334 2.19727ZM11.3247 0.89789C11.6445 0.765438 11.9872 0.697266 12.3334 0.697266C12.6795 0.697266 13.0222 0.765438 13.342 0.89789C13.6617 1.03034 13.9523 1.22448 14.197 1.46922C14.4418 1.71396 14.6359 2.00451 14.7683 2.32428C14.9008 2.64405 14.969 2.98677 14.969 3.33288C14.969 3.679 14.9008 4.02172 14.7683 4.34149C14.6359 4.66126 14.4418 4.95181 14.197 5.19655L5.19701 14.1965C5.10472 14.2888 4.98994 14.3554 4.86402 14.3898L1.19736 15.3898C0.937696 15.4606 0.66 15.3869 0.469687 15.1965C0.279375 15.0062 0.205628 14.7285 0.276445 14.4689L1.27644 10.8022C1.31079 10.6763 1.3774 10.5615 1.46969 10.4692L10.4697 1.46922C10.7144 1.22448 11.005 1.03034 11.3247 0.89789Z" fill="#00A160"/>
</svg>
