<svg width="38" height="42" viewBox="0 0 38 42" fill="none" xmlns="http://www.w3.org/2000/svg">
<path d="M26.6624 22.4898C26.6916 22.3848 27.0398 22.1047 27.1925 22.1445C29.4015 22.2943 31.8292 21.9626 34.011 22.1455C34.2074 22.162 34.4837 22.1513 34.5741 22.3663L34.6451 40.8801L34.4438 41.5056H5.94451L5.74512 40.9755L5.80056 32.3644C5.85503 32.3051 6.06318 32.0706 6.09042 32.0706H12.6559V29.2985C12.6559 29.1594 12.9419 28.7636 13.0936 28.7636H19.5133L19.6592 28.6177V25.8942C19.6592 25.8436 19.9597 25.4565 19.9996 25.4565H26.5165L26.6624 25.3106C26.7947 24.5733 26.4854 23.1308 26.6624 22.4898ZM33.5684 23.2193H27.8783L27.7324 23.3652V40.3384H33.5684V23.2193ZM26.6624 26.6237H20.875L20.7291 26.7696V40.1925L20.875 40.3384H26.6624V26.6237ZM19.6592 40.3384V30.0767L19.5133 29.9308H13.9691L13.8232 30.0767V40.3384H19.6592ZM12.6559 33.2379H6.91719C6.94831 33.3332 6.81992 33.4489 6.81992 33.481V40.1925L6.96582 40.3384H12.6559V33.2379Z" fill="#009C5C"/>
<path d="M31.3287 6.92585C31.4085 7.20793 32.2858 7.24392 32.5718 7.33632C40.3045 9.84387 37.1482 22.1686 29.4427 20.2894C24.7301 19.1407 23.1009 13.1869 25.9683 9.46939L24.7437 8.16115C23.9549 7.99287 22.4356 8.1806 21.7596 7.83822C21.5709 7.7429 19.8317 6.00668 19.6567 5.75865C19.4106 5.41043 19.3561 5.14392 19.7481 4.87741C20.2753 4.51946 20.996 4.9844 21.601 4.9309C21.7683 4.785 20.3473 3.50497 20.2908 3.37366C20.1352 3.00988 20.2208 2.56634 20.6274 2.44087C21.0301 2.31636 21.745 3.326 22.0358 3.62461C22.1554 3.74716 22.1885 3.90668 22.3792 3.86097C22.4949 3.71117 21.8393 0.871947 23.3178 2.04791C23.523 2.21132 25.1931 3.92905 25.2476 4.05745C25.5695 4.8171 25.3088 6.50663 25.6123 7.38884C25.6444 7.48319 26.5782 8.44711 26.6628 8.48505C26.8204 8.55702 26.8787 8.52103 27.0217 8.45781C27.5158 8.23993 28.0382 7.69524 28.6529 7.45985C29.1577 7.26629 29.6839 7.21279 30.2024 7.08245L30.2559 0.697838C30.2967 0.339895 30.4115 0.113263 30.7879 0.0626839C32.316 -0.139632 34.2779 0.227065 35.8555 0.0626839C37.4244 0.667686 35.1046 1.77069 35.0599 2.3543C35.2865 2.90775 36.6434 3.63628 36.3146 4.32396C36.2679 4.42122 36.0257 4.6391 35.9479 4.6391H31.4736L31.3277 4.785V6.92488L31.3287 6.92585ZM34.4413 1.13846H31.4746L31.3287 1.28436V3.32697L31.4746 3.47287H34.4413C34.3294 2.96903 33.7477 2.93596 33.7487 2.3543C33.7507 1.74638 34.378 1.66176 34.4413 1.13846ZM21.602 6.10006C22.1788 7.12428 23.3246 6.84707 24.3323 6.93266C24.4422 6.85388 24.4325 6.66421 24.4315 6.53679C24.4276 6.18857 24.2992 4.80348 24.1747 4.54767C24.0872 4.3687 23.7701 4.18584 23.6446 4.00687L23.4501 4.10705C23.5036 4.57199 23.7253 5.51256 23.4909 5.89579C23.1019 6.53095 22.207 5.98333 21.603 6.10006H21.602ZM27.6754 16.8559C26.6589 15.5719 26.337 14.0614 26.7416 12.4555C26.9459 11.6453 27.83 10.9089 26.8038 10.373C26.0335 11.0441 25.6298 12.5314 25.5909 13.542C25.4139 18.0668 30.4562 21.1959 34.0979 18.061C38.2327 14.5 35.2145 7.08051 29.575 8.38292C29.2384 8.46073 27.7824 9.08518 27.6462 9.32252C27.5168 9.54623 28.0362 10.0219 28.2619 10.087C31.9347 7.63007 35.9684 11.0004 34.8624 15.1303C34.0094 18.3149 29.7364 19.4616 27.6754 16.8568V16.8559ZM30.2335 10.4022C30.0292 10.4353 28.9943 10.8545 28.9962 11.0111C29.7073 12.0635 29.9845 11.3573 30.7937 11.3525C32.0738 11.3447 33.1243 12.5732 33.0824 13.827C32.9784 16.9998 28.2706 16.9434 28.6052 13.3455C28.6685 12.6695 29.0478 12.4506 28.2658 11.8408C26.3117 14.4349 29.0945 18.3353 32.1954 16.8383C35.4246 15.2801 34.0376 9.79134 30.2345 10.4032L30.2335 10.4022ZM31.6828 14.6245C32.459 13.7433 31.7071 12.3446 30.5506 12.5197C30.3327 12.7094 31.9872 13.6869 31.0641 14.2501C30.4173 14.645 30.216 13.5809 29.6752 13.4924C29.3931 14.678 30.8336 15.5885 31.6828 14.6245Z" fill="#009C5C"/>
<path d="M8.37373 21.0801L8.39416 22.0323C9.13922 22.5741 11.3608 23.5565 11.6555 24.3638C11.7674 24.6702 11.7878 24.9844 11.7781 25.3093C11.7547 26.0903 11.2382 29.9528 10.9776 30.5413C10.5856 31.4254 9.30847 31.7454 8.62274 30.9955C7.59949 29.876 8.73946 27.3062 8.64997 25.9113L6.9157 24.8735C6.82232 25.2674 6.74256 25.7003 6.61709 26.0835C5.94594 28.13 5.30884 30.9099 4.47332 32.7901C3.69713 34.5351 1.28101 33.5517 1.67203 31.7396C2.28967 29.0375 3.7409 26.1117 4.26517 23.4388C4.50931 22.1928 4.37119 20.7095 4.48305 19.4265C4.16985 19.6726 3.83427 19.8273 3.65628 20.2037C3.17772 21.2133 3.21566 23.4904 2.05429 23.9514C1.03104 24.3551 0.00292136 23.5575 3.34085e-06 22.4895C-0.001942 21.9321 0.846227 18.7953 1.10204 18.2341C1.15359 18.1193 1.34813 17.8605 1.44442 17.7711C2.1107 17.1563 4.91102 15.2129 5.72223 15.0719C6.69782 14.9026 7.42246 15.3073 8.13348 15.922C8.84451 16.5367 9.78216 18.128 10.3794 18.5395C11.2947 19.1688 13.8917 18.8322 14.1874 20.2757C14.4636 21.6238 13.704 22.4944 12.3374 22.3193C11.6711 22.2337 9.71407 21.7298 9.09643 21.476C8.83672 21.369 8.68012 21.0762 8.37373 21.0811V21.0801ZM7.56058 16.9307C6.76882 16.1905 6.22705 16.0465 5.23881 16.5348C4.82737 16.7381 2.27703 18.5648 2.10681 18.8498L1.16915 22.3951L1.31311 22.7414C1.57184 22.9583 1.75859 22.7531 1.86267 22.4963C2.17781 21.724 2.4025 19.6357 2.87133 19.1279C3.49384 18.8692 5.55104 16.5387 5.74752 18.2068L5.4314 23.5351L2.85188 31.7522C2.82367 31.9477 2.74683 32.3738 2.98513 32.4516L3.31681 32.4127L3.48217 32.189L6.08698 23.8026C6.23677 23.3338 6.67156 23.3308 7.08105 23.4884C7.92728 23.8143 8.88633 24.7393 9.74228 25.1303C10.1391 25.8938 9.03515 29.7067 9.3678 30.0977C9.57401 30.3399 9.90958 30.1143 10.003 29.8565L10.6887 24.9416L10.5846 24.7004L7.25321 22.6344C7.24252 21.9681 7.16665 19.5141 7.49249 19.0793C8.19573 18.1387 9.04585 20.2932 9.63334 20.4498C10.1936 20.4187 12.6389 21.3213 12.9453 21.1307C13.1671 20.9925 13.1797 20.6025 12.919 20.4634C12.1292 20.0422 10.6556 20.015 9.7948 19.6075C8.99916 18.8391 8.34844 17.665 7.56155 16.9287L7.56058 16.9307Z" fill="#009C5C"/>
<path d="M8.0463 14.14C5.05922 16.7322 2.45344 10.1851 5.92101 8.95081C8.91587 7.88476 10.1239 12.3377 8.0463 14.14ZM7.46172 13.0691C8.41689 12.0536 8.09299 9.55484 6.22643 10.1316C4.53398 10.654 5.79262 14.8442 7.46172 13.0691Z" fill="#009C5C"/>
</svg>
