<svg width="32" height="34" viewBox="0 0 32 34" fill="none" xmlns="http://www.w3.org/2000/svg">
<path d="M2.1629 2.73776C2.34018 1.25186 3.7009 0.087935 5.17657 0.00346201L25.5368 0C27.1649 0.121863 28.3525 1.26294 28.5457 2.87693L28.5311 16.3981L27.0921 17.3128V2.807C27.0921 2.34793 26.1933 1.45681 25.7418 1.45681H8.39521V31.9917H25.6726C26.2148 31.9917 27.0423 31.1878 27.0741 30.6235L27.0914 24.1475L28.547 23.129V30.5723C28.547 31.7944 27.3193 33.1307 26.1407 33.3592C18.9687 33.5039 11.742 33.5032 4.56996 33.3592C3.79507 33.1363 3.06174 32.6675 2.63448 31.9709C2.54377 31.8228 2.16359 30.951 2.16359 30.8493V28.9452H0.604825C0.34653 28.9452 0.0176025 28.5062 0.00998528 28.2188C0.00306049 27.9633 0.313291 27.4911 0.535577 27.4911H2.1629V23.3021C2.1629 23.1186 1.78758 23.2578 1.71279 23.2536C1.30631 23.2308 0.894973 23.1712 0.483641 23.1809C0.0508415 22.9947 -0.146515 22.5127 0.122859 22.0931C0.453864 21.5773 1.63039 21.8453 2.1629 21.7442V17.382H0.535577C0.122859 17.382 -0.144438 16.7076 0.121474 16.3448C0.169255 16.2791 0.493336 16.0665 0.535577 16.0665H2.1629V11.739L2.04657 11.6441C1.39702 11.694 -0.029486 11.9162 0.00860032 10.9067C0.0466867 9.89719 1.55214 10.3528 2.1629 10.1811V5.95742H0.535577C0.289054 5.95742 -0.00801917 5.43258 0.0120627 5.16185C0.0307596 4.90774 0.363842 4.50338 0.604825 4.50338H2.1629C2.21068 3.94323 2.09781 3.28545 2.1629 2.73776ZM3.61711 28.9452V30.6415C3.61711 31.1428 4.54226 31.9917 5.03669 31.9917H7.66811V1.45681H4.96744C4.88711 1.45681 4.31305 1.78016 4.20433 1.87087C4.01113 2.03081 3.61711 2.57435 3.61711 2.807V4.50338C3.84355 4.47707 4.12816 4.54285 4.34283 4.50199C4.65583 4.44245 4.74377 3.99308 5.43556 4.10386C6.95139 4.3462 6.64047 6.69968 4.98337 6.35694C4.72092 6.30293 4.4467 5.99135 4.27427 5.95881C4.07761 5.92142 3.82416 5.98027 3.6178 5.95742V10.2503C3.79369 10.2102 4.16624 10.2607 4.31166 10.2178C4.52356 10.1555 4.68976 9.90619 4.98406 9.8508C6.61416 9.54683 6.91608 11.847 5.50619 12.1032C4.79017 12.2334 4.69391 11.7618 4.31374 11.6635C4.16901 11.6261 3.82831 11.7494 3.6178 11.6351V16.0665C3.84147 16.0291 4.20225 16.1198 4.39892 16.0665C4.42523 16.0596 4.63505 15.7805 4.8151 15.7057C5.28737 15.5091 5.86836 15.6074 6.17997 16.0312C6.87938 16.9811 5.94107 18.2005 4.86426 17.7622C4.65513 17.677 4.428 17.389 4.39892 17.3814C4.20433 17.3287 3.84009 17.4194 3.6178 17.3814V21.8127C3.78746 21.7303 4.19256 21.8224 4.31651 21.776C4.79294 21.5974 4.73892 21.2145 5.50619 21.3447C6.96317 21.5918 6.57607 23.9696 4.92866 23.5832C4.5291 23.4897 4.12608 22.897 3.6178 23.3014V27.4904C4.5111 27.6808 4.7133 26.8901 5.63084 27.1047C6.73465 27.363 6.66055 29.148 5.43625 29.344C4.74516 29.4548 4.65652 29.0054 4.34352 28.9458C4.12885 28.905 3.84424 28.9708 3.6178 28.9445L3.61711 28.9452Z" fill="#009C5C"/>
<path d="M25.597 24.3339C23.4489 25.8607 21.2897 27.384 19.1617 28.9439C18.9422 29.0305 19.1728 28.6164 19.1832 28.5472C19.2594 28.0223 19.0032 28.0937 18.8882 27.8354C18.7213 27.4622 18.8501 27.0925 18.4665 26.6645C18.2401 26.4118 17.8751 26.3481 17.7062 26.1785C17.5746 26.0469 17.5954 25.8302 17.4638 25.7284C17.2747 25.5823 16.9853 25.6204 16.7748 25.6903C16.7339 25.5304 16.8052 25.5761 16.862 25.5318C17.1203 25.3296 17.47 25.0963 17.7484 24.8989C21.5182 22.2263 25.3234 19.6014 29.078 16.9072C29.335 17.1136 29.9651 17.1821 30.1722 17.3829C30.2629 17.4715 31.2753 18.9283 31.3002 19.0246C31.3459 19.2025 31.4131 20.0009 31.3494 20.1497C31.3175 20.2238 30.9221 20.5839 30.8259 20.6642C29.3079 21.9348 27.2451 23.1624 25.597 24.3332V24.3339Z" fill="#009C5C"/>
<path d="M15.7872 6.66602L24.7091 6.71448C25.4556 7.09392 25.171 8.06536 24.358 8.10483C21.7003 7.92896 18.7407 8.34024 16.1182 8.10344C15.1211 8.01343 14.8711 7.06345 15.7865 6.66671L15.7872 6.66602Z" fill="#009C5C"/>
<path d="M15.7158 12.1341L24.5663 12.1182C25.2893 12.2601 25.3315 13.0951 24.7367 13.4683L15.6154 13.4517C15.0718 13.1505 15.1168 12.3446 15.7158 12.1341Z" fill="#009C5C"/>
<path d="M23.813 18.6036C23.7119 18.7095 23.4737 18.8265 23.3193 18.8369H15.9063C14.9687 18.7247 15.058 17.4424 15.9769 17.3808C18.2808 17.5504 20.9129 17.153 23.1773 17.3815C23.8248 17.4472 24.3026 18.0877 23.8123 18.6029L23.813 18.6036Z" fill="#009C5C"/>
<path d="M14.6972 9.07288C14.6189 9.71889 14.5781 10.3012 14.7616 10.9354C13.6577 11.4873 12.7693 12.6803 12.0768 13.6898C12.0304 13.7577 12.002 13.8373 11.9958 13.919C11.8912 13.9474 11.8808 13.8906 11.8227 13.8511C11.3975 13.5596 10.9578 12.9323 10.4689 12.5737C10.3553 12.4906 9.80826 12.2046 9.78125 12.1534L11.1274 11.3585C11.2265 11.382 11.6108 12.332 11.7306 12.4892C11.7901 12.5674 11.8033 12.6304 11.9265 12.6034C12.3254 11.5302 13.0643 10.3524 13.9347 9.59079C14.0054 9.52848 14.6542 9.02233 14.6972 9.07288Z" fill="#009C5C"/>
<path d="M11.9958 8.51985C11.8898 8.54547 11.885 8.50393 11.8282 8.44646C11.1994 7.81568 10.6586 7.07896 9.78125 6.75492L11.1205 5.9642L11.8234 7.20359C12.5311 5.84095 13.3323 4.40699 14.6965 3.60449C14.7075 3.99708 14.5954 4.34952 14.6258 4.74972C14.6397 4.9346 14.801 5.37081 14.7359 5.47398C14.1148 5.82018 13.4701 6.45234 12.9999 6.99657C12.6315 7.42239 12.2035 8.00055 11.9958 8.52054V8.51985Z" fill="#009C5C"/>
<path d="M14.6967 14.4054C14.6067 15.0583 14.5963 15.6247 14.7584 16.2659C13.4988 16.853 12.7142 18.1818 11.8929 19.2501C11.3285 18.51 10.589 17.9387 9.78223 17.4859L11.127 16.6917L11.8237 17.9346C12.2869 17.1584 12.6602 16.3164 13.2453 15.6185C13.3686 15.471 14.561 14.2552 14.6967 14.4054Z" fill="#009C5C"/>
<path d="M17.2499 29.3514L14.7258 29.9081C14.4571 29.8271 14.3629 29.6263 14.4578 29.3645C14.5437 29.1264 15.4591 27.5816 15.635 27.3566C15.6766 27.3033 15.7098 27.2458 15.7798 27.2236C16.3344 27.2638 17.5137 28.947 17.2499 29.3521V29.3514Z" fill="#009C5C"/>
</svg>
