<svg width="40" height="46" viewBox="0 0 40 46" fill="none" xmlns="http://www.w3.org/2000/svg">
<path d="M17.8114 22.6655C17.293 22.5742 17.1307 22.1254 17.0876 21.6602C16.9484 20.1512 16.9992 17.6215 17.0876 16.0779C17.2354 13.4963 18.4209 11.0589 20.5559 9.55467C21.0953 9.17406 21.7327 8.953 22.2694 8.57239C22.3068 8.44552 22.2473 8.38497 22.1839 8.29174C21.9017 7.87557 21.5475 7.60645 21.2787 7.08359C19.3233 3.2698 23.2936 -0.885197 27.1594 0.907323C29.4815 1.9838 30.4309 4.76341 29.2991 7.06437C29.0121 7.64778 28.5926 7.96688 28.2307 8.4782C28.2662 8.68581 29.3125 9.10582 29.5621 9.26633C34.3561 12.3468 33.3453 16.9622 33.4115 21.9466C33.4873 22.2849 32.9402 22.6655 32.6896 22.6655H30.3857L30.2418 22.8097V28.9129C30.715 28.9639 31.314 28.416 31.6826 28.0969C33.2282 26.761 34.5116 24.8637 34.9935 22.8578C35.2191 21.9178 35.2575 20.9499 35.3928 19.9965C36.4219 19.0863 36.828 20.0311 36.7675 21.0777C36.3518 28.319 29.2328 33.3649 22.253 31.4801C17.7547 30.2653 14.2173 26.1477 13.8266 21.4632C13.7786 20.8855 13.625 19.3958 14.6714 19.6524C15.471 19.8485 15.2713 21.2286 15.376 21.9303C15.7043 24.137 16.9628 26.4294 18.6254 27.9037C18.7991 28.0585 19.738 28.8014 19.8781 28.8591C20.0375 28.9245 20.1872 28.9245 20.3543 28.911V22.9039C20.3543 22.8722 20.2275 22.7578 20.2583 22.6636C19.5229 22.5733 18.5073 22.7867 17.8104 22.6636L17.8114 22.6655ZM23.0767 2.89976C20.3859 5.63708 24.4715 9.91126 27.3168 7.28927C30.3675 4.47891 25.9969 -0.0711144 23.0767 2.89976ZM30.3867 21.1277H31.8266C31.9639 21.0431 31.9591 20.9365 31.9754 20.7961C32.1482 19.3256 32.0753 15.3945 31.6145 14.0345C29.3327 7.29408 19.2782 8.6118 18.6273 15.3128C18.4488 17.1496 18.7511 19.2631 18.6273 21.1268H20.2112L20.3552 20.9826V14.3507C20.3552 14.3238 20.6912 13.9913 20.7411 13.9682C21.1827 13.7645 21.7251 14.0701 21.7894 14.5487L21.8134 29.6146C21.9247 29.9865 23.9848 30.4363 24.3169 30.3364C24.388 30.3152 24.578 30.1509 24.578 30.1144V21.6564C24.578 21.4757 25.0734 21.1162 25.2894 21.1268C25.5054 21.1373 26.018 21.5708 26.018 21.7525V30.2105C26.018 30.3104 26.2503 30.3566 26.353 30.3633C26.6602 30.3816 28.5974 29.9356 28.7039 29.704L28.7778 14.4238C29.134 13.7212 29.947 13.7414 30.1995 14.4882C30.451 16.4854 30.0066 18.8402 30.236 20.7952C30.2523 20.9355 30.2475 21.0422 30.3848 21.1268L30.3867 21.1277Z" fill="#009C5C"/>
<path d="M15.9965 29.8174C21.5815 35.3478 30.7883 34.7922 35.6572 28.615C39.5316 23.6997 39.4423 16.966 35.6159 12.0479C35.255 11.5846 33.8995 10.5898 34.6617 9.93338C35.3039 9.38072 36.0393 10.2928 36.4357 10.7465C37.9803 12.5121 39.2829 15.1456 39.7197 17.4543C42.0342 29.6684 29.5759 39.0212 18.5307 33.4707L18.2408 33.4687L16.0262 35.5852C15.6461 35.8601 15.3821 35.5765 15.0077 35.4679L5.42741 44.9649C2.17125 47.3562 -1.77606 43.3281 0.865722 40.1092L10.088 30.89C10.376 30.5623 9.98621 30.3066 9.97949 30.0221C9.96221 29.333 11.9848 28.07 12.221 27.4453C12.3103 27.2079 11.7928 26.3467 11.67 26.0276C9.70975 20.924 10.3616 15.3676 13.8299 11.0877C14.2407 10.5812 15.5242 8.94437 16.0589 10.1977C16.3392 10.8551 15.5184 11.328 15.1738 11.7605C10.7599 17.2966 10.9106 24.7829 15.9955 29.8183L15.9965 29.8174ZM15.0423 33.2717C15.2506 33.4745 15.3648 33.9166 15.7747 33.8013C15.935 33.7561 16.9411 32.7277 16.8911 32.5345C16.8633 32.4269 15.7584 31.6464 15.5549 31.4609C15.121 31.0678 14.6026 30.5498 14.21 30.1163C14.0065 29.8924 13.372 28.937 13.2529 28.863C13.1454 28.7957 13.0552 28.7967 12.9371 28.8303C12.7931 28.8716 11.692 29.8943 11.9263 30.1884C12.9544 31.2303 13.9959 32.25 15.0432 33.2707L15.0423 33.2717ZM13.6974 34.6461L13.9086 34.3251C13.6225 33.956 11.6354 31.8175 11.3753 31.7916C11.0978 31.7637 10.8521 32.2356 10.6639 32.424C7.90792 35.1873 4.74104 38.0043 2.15014 40.8657C0.364628 42.8369 2.60323 45.0639 4.37338 43.9086L13.6974 34.6471V34.6461Z" fill="#009C5C"/>
</svg>
