<svg width="46" height="37" viewBox="0 0 46 37" fill="none" xmlns="http://www.w3.org/2000/svg">
<path d="M15.3155 19.132C15.5585 17.6279 16.4152 17.128 17.4432 16.2087C21.1011 12.937 19.607 6.92283 15.0942 5.4831C14.3557 5.2473 12.7978 5.12081 12.0255 5.30112C11.9029 5.32942 11.575 5.43594 11.4296 5.48199C10.9242 5.64011 10.0986 6.23265 9.62595 5.79213C9.05394 5.25951 9.5333 4.81677 10.052 4.54824C13.7066 2.65412 18.7953 4.78903 20.3327 8.51181C20.442 8.77701 20.7355 10.0858 20.8775 10.1357L32.0613 10.1546C32.8553 10.4631 32.7721 11.2964 31.9853 11.5572L20.9158 11.5838C20.8353 11.6398 20.8314 12.7494 20.7954 12.9614C20.594 14.1304 19.8511 15.6006 19.0877 16.5088C18.3514 17.3843 17.2241 17.8493 16.7847 18.9372C16.6426 20.3675 16.8845 21.9376 16.7602 23.3513C16.7242 23.7635 16.5511 24.2201 16.2299 24.4853C16.1172 24.578 15.8698 24.6773 15.8121 24.7478C15.513 25.1134 15.2928 26.107 15.0376 26.5548C14.956 26.6985 14.6842 26.8533 14.5127 26.8738C13.9868 26.937 12.4843 26.9365 11.9578 26.8738C11.6061 26.8322 11.4396 26.552 11.2976 26.258C11.1267 25.9034 10.8998 25.0263 10.6562 24.7516C10.5414 24.6224 10.3222 24.5697 10.1813 24.4343C9.90946 24.1724 9.79184 23.8312 9.76521 23.4628C9.67255 22.1707 9.86341 20.7553 9.76965 19.4638C9.67255 18.1233 8.76766 17.8637 7.93322 17.082C6.75037 15.974 6.09459 14.5953 5.76004 13.0429C5.7384 12.9425 5.60691 12.7184 5.60691 12.6413V11.6426C5.55808 11.5633 5.4965 11.566 5.4155 11.5566C4.32252 11.4284 2.98155 11.6592 1.86083 11.5583C1.6439 11.5677 1.46914 11.7336 1.402 11.9317L1.38702 30.5649C1.35873 30.8074 1.70382 31.062 1.9152 31.0909C4.27481 31.2063 6.79198 30.9289 9.13272 31.0859C9.26588 31.0948 9.49834 31.112 9.61485 31.1586C9.86119 31.2579 9.97936 31.6008 10.0992 31.7844C10.6967 32.701 11.2438 33.6258 11.7664 34.584C11.8408 34.6528 11.9889 34.3876 12.0327 34.3238C12.4288 33.7479 12.7795 33.0749 13.139 32.4923C13.3293 32.1839 13.5795 31.6346 13.7931 31.3683C13.903 31.2318 14.09 31.1453 14.2592 31.1131L22.6118 31.0892C23.6238 31.1913 23.5705 32.3487 22.6129 32.4757L14.8012 32.4868C14.6853 32.5206 14.2103 33.2863 14.106 33.4561C13.5773 34.3171 13.0624 35.4129 12.4854 36.2185C12.1531 36.6823 11.772 36.7821 11.3009 36.4082C10.6818 35.4262 10.1502 34.3865 9.53219 33.4028C9.46339 33.2935 9.40125 33.172 9.3491 33.0915C9.28197 32.9878 8.99125 32.5478 8.92356 32.5162C8.84977 32.4763 8.76988 32.4801 8.68943 32.4729C6.55841 32.2776 4.11447 32.6627 1.97457 32.4746C0.935964 32.3836 0.224143 31.7406 0 30.7319V11.8057C0.257432 10.8376 0.987561 10.2323 1.97901 10.123C2.50719 10.0647 5.56696 10.1984 5.72064 10.0919C5.82106 9.95542 5.75005 9.76901 5.78445 9.6009C5.92426 8.92015 6.78477 7.25405 7.24693 6.73586C7.44943 6.50839 7.8439 6.43016 8.11909 6.56498C8.13684 6.57386 8.39427 6.82851 8.40426 6.84627C8.68999 7.35725 8.16791 7.73674 7.94543 8.09958C6.32206 10.7455 6.72651 14.2474 9.09999 16.3036C9.50389 16.6536 9.95662 16.8672 10.3211 17.3017C10.517 17.5352 11.099 18.5439 11.099 18.7985V20.5739L11.1822 20.6571H12.4583L12.5415 20.5739V15.858C12.4577 15.7754 12.3678 15.696 12.3057 15.5945C11.6865 14.5803 10.9941 13.5944 10.3572 12.6052C10.1502 12.2834 9.76188 11.9333 9.76299 11.5305C9.76465 10.8664 10.4393 10.7249 10.9286 11.0351L13.1479 14.3506L13.2882 14.3895L15.5369 11.0295C16.0911 10.6484 16.7436 10.9541 16.7469 11.6265L13.9285 15.913V20.5734L14.0117 20.6566H15.2323L15.3155 20.5734C15.3655 20.1323 15.2473 19.552 15.3155 19.1309V19.132ZM15.26 23.3763V22.2389C15.26 22.2273 15.3039 22.2017 15.2883 22.1557L15.179 22.0675L11.1545 22.0447V23.3763H15.26ZM14.1504 24.9297H12.4305C12.4067 25.0884 12.4649 25.3675 12.6352 25.4185C12.7429 25.4507 13.7243 25.4502 13.8336 25.4185C14.0511 25.3542 13.9024 25.0401 14.1499 24.9303L14.1504 24.9297Z" fill="#009C5C"/>
<path d="M45.5347 31.7891C45.1924 32.1709 44.5377 32.4338 44.0306 32.4766H25.7174C24.7082 32.4555 24.6172 31.1439 25.6653 31.0884L44.0322 31.0912C44.5876 31.0085 44.642 30.7228 44.6692 30.2301V12.3603C44.6608 11.9824 44.5704 11.6079 44.1404 11.5569L34.8213 11.5552C33.8942 11.2318 34.0412 10.2026 35.0382 10.1133L43.9718 10.1166C44.991 10.2231 45.8398 10.799 46.0007 11.8604V30.7855C45.9707 31.0923 45.7388 31.5606 45.5341 31.7891H45.5347Z" fill="#009C5C"/>
<path d="M41.651 15.0175C42.0754 15.4064 41.7664 16.1454 41.1988 16.2236H24.3831C23.5159 16.0228 23.5148 15.0097 24.3842 14.8327L41.1433 14.8311C41.2759 14.8322 41.5583 14.932 41.651 15.0169V15.0175Z" fill="#009C5C"/>
<path d="M24.177 20.4482L41.4327 20.4793C41.9969 20.663 41.9675 21.5135 41.4321 21.7249L24.2752 21.7692C23.6172 21.6921 23.5401 20.6535 24.177 20.4482Z" fill="#009C5C"/>
<path d="M23.9457 23.4068C24.111 23.2531 24.2003 23.227 24.4394 23.207H41.1436C41.9642 23.2065 42.1096 24.3605 41.3101 24.5436H24.2724C23.7298 24.4248 23.5356 23.7879 23.9451 23.4073L23.9457 23.4068Z" fill="#009C5C"/>
<path d="M41.5983 18.8678C41.489 18.9522 41.1295 18.9877 40.9786 18.9977H24.5518C23.7468 19.0504 23.4167 18.1538 24.0963 17.7055L41.3115 17.6611C41.8835 17.7394 42.0083 18.5516 41.5983 18.8678Z" fill="#009C5C"/>
<path d="M24.2894 25.9995L34.2066 25.9834C35.0627 26.1709 35.1104 27.1285 34.2643 27.3749H24.3271C23.572 27.1424 23.5104 26.2669 24.2899 25.9995H24.2894Z" fill="#009C5C"/>
<path d="M0.684032 6.13796C0.981965 5.90272 1.23385 5.9582 1.54954 6.10023C1.76314 6.19621 2.59091 6.65948 2.74016 6.79596C3.27222 7.28253 2.97151 8.11807 2.20754 7.99546C1.98284 7.9594 0.766144 7.25756 0.621339 7.08446C0.388319 6.80539 0.389428 6.37153 0.684032 6.13851V6.13796Z" fill="#009C5C"/>
<path d="M6.46012 3.21784C6.35138 3.11132 5.65121 1.89351 5.61958 1.75647C5.43483 0.953106 6.32586 0.608569 6.77414 1.10124C6.93559 1.27878 7.33062 1.99726 7.461 2.24526C7.65241 2.60977 7.74451 2.7812 7.48541 3.14571C7.22631 3.51022 6.75861 3.51133 6.46068 3.21839L6.46012 3.21784Z" fill="#009C5C"/>
<path d="M23.6703 7.80987C23.3724 7.52747 23.3752 7.12468 23.6809 6.84395C23.8457 6.69248 24.6856 6.21479 24.9198 6.10106C25.0762 6.02505 25.246 5.92906 25.4241 5.96957C26.0083 6.10216 26.1936 6.7574 25.7642 7.1674C25.6538 7.27281 24.5897 7.9003 24.441 7.95246C24.1014 8.07118 23.9139 8.04067 23.6709 7.80987H23.6703Z" fill="#009C5C"/>
<path d="M20.2152 2.81002C20.1792 2.8655 20.1997 2.96204 20.1431 3.04415C19.6049 3.82089 18.6068 3.31434 18.9364 2.39225C18.9835 2.26021 19.1677 2.0466 19.2182 1.95506C19.3758 1.66989 19.6832 0.963615 20.0072 0.910908C20.7367 0.792179 21.0508 1.29817 20.7745 1.95561C20.648 2.25743 20.3833 2.55148 20.2152 2.81058V2.81002Z" fill="#009C5C"/>
</svg>
