<svg width="31" height="27" viewBox="0 0 31 27" fill="none" xmlns="http://www.w3.org/2000/svg">
<g clip-path="url(#clip0_596_1031)">
<path d="M3.81638 27.0004C3.14294 26.9932 2.49846 26.8131 1.9264 26.489C0.0871092 25.4376 -0.542884 23.0897 0.521587 21.2677L12.209 1.84408C12.5277 1.31834 12.9766 0.87902 13.5052 0.554933C14.3814 0.0219912 15.4169 -0.136451 16.4162 0.108414C17.4155 0.35328 18.2555 0.965443 18.7914 1.83687L30.4788 21.2388C30.8192 21.8222 30.993 22.4704 31.0002 23.1258C31.0147 24.1484 30.6237 25.1135 29.9068 25.8409C29.1899 26.5683 28.2268 26.9788 27.1985 26.9932H3.81638V27.0004Z" fill="#A60D0D"/>
<path d="M15.4964 16.0244C14.8953 16.0244 14.4102 15.5419 14.4102 14.9441V9.45626C14.4102 8.85851 14.8953 8.37598 15.4964 8.37598C16.0974 8.37598 16.5825 8.85851 16.5825 9.45626V14.9441C16.5825 15.5419 16.0974 16.0244 15.4964 16.0244Z" fill="#FFE4E4"/>
<path d="M15.5114 21.5121C14.9104 21.5121 14.418 21.0296 14.418 20.4319C14.418 19.8341 14.8959 19.3516 15.4969 19.3516H15.5114C16.1124 19.3516 16.5976 19.8341 16.5976 20.4319C16.5976 21.0296 16.1124 21.5121 15.5114 21.5121Z" fill="white"/>
</g>
<defs>
<clipPath id="clip0_596_1031">
<rect width="31" height="27" fill="white"/>
</clipPath>
</defs>
</svg>
